# xmcd
#
# Track frame offsets:
#	182
#	9142
#	21362
#	31815
#	43540
#	54535
#	63900
#	75447
#	87950
#	101377
#	114127
#	126812
#	137760
#	150570
#	161262
#	172795
#	182047
#	193775
#	206585
#	219702
#	232130
#	242292
#	251990
#	261347
#	271690
#	283482
#	293500
#	304687
#	314655
#	325867
#	336222
#
# Disc length: 4597 seconds
#
# Revision: 7
# Processed by: cddbd v1.5.2PL0 Copyright (c) Steve Scherf et al.
# Submitted via: EZCDAudioConverter 2.1.7.1
#
DISCID=aa11f31f
DTITLE=V/A - Nuggets 2/4
DYEAR=1998
DGENRE=blues
TTITLE0=Music Machine - Talk Talk
TTITLE1=The Del-Vetts - Last Time Around
TTITLE2=Human Beinz - Nobody But Me
TTITLE3=Kenny and The Kasuals - Journey To Tyme
TTITLE4=The Sparkles - No Friend Of Mine
TTITLE5=The Turtles - Outside Chance
TTITLE6=The Litter - Action Woman
TTITLE7=Elastik Band - Spazz
TTITLE8=Chocolate Watchband - Sweet Young Thing
TTITLE9=Strawberry Alarm Clock - Incense And Peppermints
TTITLE10=The Brogues - I Ain't No Miracle Worker
TTITLE11=Love - 7 And 7 Is
TTITLE12=The Outsiders - Time Won't Let Me
TTITLE13=The Squires - Going All The Way
TTITLE14=Shadows Of Knight - I'm Gonna Make You Mine
TTITLE15=Kim Fowley - The Trip
TTITLE16=The Seeds - Can't Seem To Make You Mine
TTITLE17=The Remains - Why Do I Cry
TTITLE18=Beau Brummels - Laugh, Laugh
TTITLE19=The Nightcrawlers - The Little Black Egg
TTITLE20=The Gants - I Wonder
TTITLE21=Five Americans - I See The Light
TTITLE22=The Woolies - Who Do You Love
TTITLE23=Swingin' Medallions - Double Shot (Of My Baby's Love)
TTITLE24=The Merry-Go-Round - Live
TTITLE25=Paul Revere and The Raiders - Steppin' Out
TTITLE26=Captain Beefheart and His Magic Band - Diddy Wah Diddy
TTITLE27=The Sonics - Strychnine
TTITLE28=Syndicate Of Sound - Little Girl
TTITLE29=Blues Magoos - (We Ain't Got) Nothin' Yet
TTITLE30=Max Frost and The Troopers - Shape Of Things To Come
EXTD=
EXTT0=
EXTT1=
EXTT2=
EXTT3=
EXTT4=
EXTT5=
EXTT6=
EXTT7=
EXTT8=
EXTT9=
EXTT10=
EXTT11=
EXTT12=
EXTT13=
EXTT14=
EXTT15=
EXTT16=
EXTT17=
EXTT18=
EXTT19=
EXTT20=
EXTT21=
EXTT22=
EXTT23=
EXTT24=
EXTT25=
EXTT26=
EXTT27=
EXTT28=
EXTT29=
EXTT30=
PLAYORDER=
